<?xml version="1.0" encoding="UTF-8"?>
<svg xmlns="http://www.w3.org/2000/svg" version="1.1" viewBox="0 0 512 512">
  <defs>
    <style>
      .cls-1 {
        fill: #1d2a3a;
      }

      .cls-2 {
        fill: #7f5c42;
      }

      .cls-3 {
        fill: #a67d5b;
      }

      .cls-4 {
        fill: #4d995d;
      }
    </style>
  </defs>
  <!-- Generator: Adobe Illustrator 28.7.1, SVG Export Plug-In . SVG Version: 1.2.0 Build 142)  -->
  <g>
    <g id="Layer_3">
      <g>
        <path class="cls-3" d="M348.44,359.57c-2.7,3.09-6.91,7.59-12.16,12.2,5.29-3.28,9.23-7.6,12.16-12.2Z"/>
        <path class="cls-3" d="M231.35,256.99c-.46-.71-1.17-1.8-2.07-3.19.62.62,1.24,1.24,1.86,1.85.07.45.14.89.21,1.34Z"/>
        <path class="cls-3" d="M233.78,77.77c-.22,7.99-1.53,14.98-4.28,19.73-3.87,6.68-6.25,26.6-6.41,53.7-22.67-28.56-37.41-35.13-48.09-30.2-1.26.58-2.46,1.21-3.59,1.9,11.92-31.84,26.67-50.78,29.09-81.4,3-38,2-40,15-29,5.61,4.75,11.04,17.7,14.5,32.41-10.79,12.64,1.5,34.59,1.5,34.59.75-.6,1.51-1.18,2.28-1.73Z"/>
        <path class="cls-3" d="M415.5,447.5c-47,34-71,49-138,56s-199-26-250-168,63.5-251.5,63.5-251.5c0,0,20.5-14.5.5,8.5s-56,99-32,212,124,144,124,144c0,0,4,3,7-18s-9-47-28-66-36-17-48-63,0-57,10-32,63,58,63,58c0,0-3.71-13.41-8.35-33.22.37.58,2.19,1.48,10.97-3.28,8.82-4.78,9.21-12.09,9.01-14.87,1.93-2.25,2.87-4.13,2.87-4.13,0,0,4-5-1-18-4.68-12.17-37.4-64.64-39.92-82.78.12-8.32.82-15.79,2.27-22.02.25.96.53,1.95.86,2.97l-2.21,8.83s47,98,64,116c6.43,6.81,9.71,10.61,11.31,12.71,3.37,16.03,7.41,31.82,12.19,46.79.94,2.94,1.9,5.72,2.88,8.37-17.38,36.38-29.07,30.69-37.88,33.63-9,3-13,4-10,27,1.42,10.92,10.29,21.83,20.06,30.29.99,4.43,5.81,19.8,25.44,23.21,23,4,26-6,34-13s33-35,44-44,26-29,29-41l-.08-26.19c3.51-23.92,1.58-54.31,1.58-54.31,0,0-17-52,0-78s36-34,26-11,4,70,4,70c0,0,30,64-1,105s-14,63-14,63c0,0,51-35,76-94s36-150-3-209-17-45-17-45c0,0,74,44,76,150s-43,182-90,216Z"/>
        <path class="cls-2" d="M237.69,290.22l-5.69-32.22s-.23-.36-.65-1.01c1.69,10.9,3.67,21.87,5.96,32.72.14.18.26.35.38.51Z"/>
        <path class="cls-2" d="M237.69,290.22l.31,1.78s1.73,1.04-.31-1.78Z"/>
        <path class="cls-2" d="M237.31,289.71c-1.6-2.1-4.88-5.9-11.31-12.71-17-18-64-116-64-116l2.21-8.83c1.61,5.09,4.15,10.97,7.79,17.83,10.18,19.16,31.87,58.04,57.28,83.8.9,1.39,1.61,2.48,2.07,3.19,1.69,10.91,3.67,21.87,5.96,32.72Z"/>
        <path class="cls-2" d="M176.03,282.62h-.03s3.05,11.38,3.05,11.38c0,0,0,.13.1.28-.85-3.64-1.73-7.49-2.63-11.52-.16-.05-.32-.09-.48-.14Z"/>
        <path class="cls-2" d="M190.12,291c-8.78,4.76-10.6,3.86-10.97,3.28-.85-3.64-1.74-7.49-2.63-11.52,11.49,3.46,18.89-2.28,22.61-6.63.2,2.78-.19,10.09-9.01,14.87Z"/>
        <path class="cls-2" d="M356.92,334.81v-3.58s-.19,15.29-8.48,28.34c.02-.02.04-.05.06-.07,4.28-4.89,6.87-14.16,8.42-24.69Z"/>
        <path class="cls-2" d="M336.28,371.77c-1.19,1.05-2.43,2.09-3.72,3.13.25-.48.48-.96.71-1.44h.01c1.05-.52,2.04-1.09,3-1.69Z"/>
        <path class="cls-2" d="M357,361c-3,12-18,32-29,41s-36,37-44,44-11,17-34,13c-19.63-3.41-24.45-18.78-25.44-23.21,10.81,9.36,22.74,15.71,26.94,15.71,8,0,17-3,28-16,8.72-10.3,40.68-36.31,53.06-60.6,1.29-1.04,2.53-2.08,3.72-3.13,5.29-3.28,9.23-7.59,12.16-12.2.02-.02.04-.05.06-.07,4.28-4.89,6.87-14.16,8.42-24.69l.08,26.19Z"/>
        <path class="cls-4" d="M167,102s12-19,2-42-30-29-30-29c0,0-11,21-1,44s29,27,29,27Z"/>
        <path class="cls-4" d="M434,215c10-18,6-41,6-41,0,0-18,1-32,19s-10,45-10,45c0,0,26-5,36-23Z"/>
        <path class="cls-4" d="M164,412s2-28-16-44-38-14-38-14c0,0-2,24,16,42s38,16,38,16Z"/>
        <path class="cls-1" d="M290.5,67.5s-31.98-7.52-56.72,10.27c-.77.55-1.53,1.13-2.28,1.73,0,0-12.29-21.95-1.5-34.59.73-.85,1.56-1.66,2.5-2.41,15-12,30-13,46-5s12,30,12,30Z"/>
        <path class="cls-1" d="M344.61,153.94c.29.19.58.39.89.56,15,8,25,0,30-5s14-31-4-43-31,3-31,3c0,0-.16.58-.4,1.61,9.22,10.71,11.96,32.14,4.51,42.83Z"/>
        <path class="cls-1" d="M263,142c6-2,0-17,15-6,0,0,11-3,8-18s-26-10-26-10c0,0-14,3-18,17s15,19,21,17Z"/>
        <path class="cls-1" d="M308.37,155.96c1.91,3.32.81,7.75-2.82,9.35-.59.26-1.18.42-1.77.49.08.07.14.14.22.21,10,9,13,3,16,2s15-21,0-30-16,13-16,13c0,0-.11.07-.29.19.23.35.43.73.56,1.12,1.71.78,3.2,2.1,4.09,3.64Z"/>
        <path class="cls-1" d="M292,175c2-3-2-8-10-14s-11,0-11,0c-1.5,2.5,1.49,6.23,2.5,8.5.36.82-.23,3.55-1,4-.77.45-3,0-4.5-.5-3.45-1.15-6.72-4.3-7.5-5.5-.08-.12-1.52-2.56-1.57-2.7-.59-1.72-4.87-13.92-3.93-1.8,1,13,8.16,14.98,15,20,7.5,5.5,18,5,24,4,3-.5,2.5-.62,2.5-1.5,0-.79-1.5-.5-6-1l-3.5-.5c-5-1-7-4-4-7s7,1,9-2Z"/>
        <path class="cls-1" d="M332,240s-4,27-49,38c-17.36,4.24-35.34-6.15-51.86-22.35-.62-.61-1.24-1.23-1.86-1.85-25.41-25.76-47.1-64.64-57.28-83.8-3.64-6.86-6.18-12.74-7.79-17.83-.33-1.02-.61-2.01-.86-2.97-3.77-14.37.53-21.7,8.06-26.3,1.13-.69,2.33-1.32,3.59-1.9,10.68-4.93,25.42,1.64,48.09,30.2,4.92,6.2,10.2,13.42,15.91,21.8,28.97,42.55,73.51,27.73,81.69,24.54.77-.3,1.47-.77,2.07-1.35,2.11-2.04,7.24-8.19,12.24,5.81,5.32,14.89-3,38-3,38Z"/>
        <path class="cls-1" d="M202,272s-.94,1.88-2.87,4.13c-3.72,4.35-11.12,10.09-22.61,6.63-.03-.09-.05-.18-.07-.28l-.42.14c-1.9-.61-3.91-1.46-6.03-2.62-22-12-36-44-31-70,4.53-23.54,18.9-38.89,21.57-41.58.28-.28.43-.42.43-.42-.13.9-.09,1.98.08,3.22,2.52,18.14,35.24,70.61,39.92,82.78,5,13,1,18,1,18Z"/>
        <path class="cls-1" d="M176.52,282.76c-.17-.05-.32-.09-.49-.14l.42-.14c.02.1.04.19.07.28Z"/>
        <path class="cls-1" d="M337.5,356.5c.19,5.37-1.42,11.11-4.23,16.96-.23.48-.46.96-.71,1.44-12.38,24.29-44.34,50.3-53.06,60.6-11,13-20,16-28,16-4.2,0-16.13-6.35-26.94-15.71-9.77-8.46-18.64-19.37-20.06-30.29-3-23,1-24,10-27,8.81-2.94,20.5,2.75,37.88-33.63.37-.77.74-1.56,1.12-2.37,13.53-29.31,40.05-29.25,52.39-27.41,4.58.68,8.93,2.51,12.59,5.34,7.18,5.55,18.34,17.16,19.02,36.07Z"/>
      </g>
    </g>
  </g>
</svg>